<svg width="1080" height="1080" xmlns="http://www.w3.org/2000/svg"><g fill="none" fill-rule="evenodd"><circle fill="#4520E6" cx="539" cy="540" r="540"/><path d="M728.33 659.192c0 55.668-44.435 100.95-99.06 100.95H439.34L636.725 559c51.093 3.965 91.604 47.125 91.604 100.192ZM414.211 546.43V313.857h221.265c3.78 0 7.51.208 11.182.619L414.212 546.429Zm358.873-129.835c0-46.905-22.987-88.514-58.248-114.084L810 207l-56.93.326-75.605 75.879c-13.994-4.718-28.967-7.276-44.525-7.276H372.656v370.013l313.371-314.518c28.224 17.794 47.027 49.32 47.027 85.17 0 55.409-44.907 100.48-100.114 100.48h-8.288L276 867h56.606l68.355-68.603h231.98c77.274 0 140.144-63.099 140.144-140.656 0-51.15-27.43-95.873-68.208-120.494 40.822-24.615 68.208-69.478 68.208-120.653Z" fill="#FFF"/></g></svg>