<svg version="1.1" id="Layer_1" xmlns="http://www.w3.org/2000/svg" x="0" y="0" viewBox="0 0 1000 1000" style="enable-background:new 0 0 1000 1000" xml:space="preserve"><style>.st1{fill:#fff}</style><circle cx="500.5" cy="499.5" r="479.5" style="fill:#3cc194"/><g id="Group_5" transform="translate(-91.385 -97.772)"><g id="Group_4" transform="translate(91.385 97.772)"><g id="Group_3"><g id="Laag_1"><g id="Group_2"><g id="Group_1"><path id="Path_1" class="st1" d="m724.8 589.4-1.4 1.5c-8.6 8.7-19 15.6-30.4 20.1h-.6c-10.5 4.1-21.7 6.2-32.9 6.2-16.5.3-32.8-3.2-47.7-10.3h-.9l-2.2-1.1-.6-.3c-13.8-7.4-25.1-18.7-32.6-32.5l-1.4-2.5-30.5 32.7s-6.1 31.3-8.8 46.6v1l.7.7.4.5c31 34 74.9 53.3 120.9 53.3l2.5.1 2 .1c30.1 0 59.7-7.7 86-22.3l.8-.4c14.5-8.2 27.8-18.4 39.4-30.3l1.4-1.5-64.1-61.6z"/><path id="Path_2" class="st1" d="M294.4 438v.6l12.4 46.5 2.5-4c13.4-19.4 33.8-32.9 56.9-37.4h1c8.1-1.7 16.4-2.3 24.7-1.9 12.5.8 24.6 4.4 35.6 10.4l.9.5c15.1 8.5 28.5 19.8 39.4 33.3l1.8 2.3 29.2-41.1 9.3-43.4-1-.8-3.3-2.9c-19.1-17.6-41.7-30.8-66.4-38.9-13.3-4-27.1-6.2-40.9-6.4h-.6c-31.3.1-62 8-89.5 22.9l-.9.5-12.3 55.1 1.2 4.7z"/><path id="Path_3" class="st1" d="M567.7 556.5v-.8c.2-3.4-.6-16.8-.8-24.6l.2-2.1c-.4-20.7 6.3-40.9 19.2-57.1l.4-.6c1.9-2.4 3.8-4.6 5.9-6.8 16.8-17.3 39.8-27.1 63.9-27.1 3.8 0 7.7.2 11.5.6h.6c19.8 2.6 38.2 11.6 52.5 25.5l1.5 1.5 61.7-62.2-1.5-1.5c-31.2-30.3-72.2-48.3-115.6-51h-.6l-11.7-.6c-26.1-.2-51.9 4.8-76 14.7-15.9 6.8-30.6 16.3-43.2 28.1l-.7.6h-.8v.4l-.5.4-.7.6c-4.4 4.3-8.5 8.9-12.2 13.8v.4l-10 43.5-32.9 45.4v31.7c-.3 35.1-20.5 66.9-52.2 82l-.6.3c-11.6 5.2-24.1 7.9-36.8 8-50 .4-91.1-39.2-92.5-89.2l-.4-29.6.1-1.9-16.2-63.5 13.7-58.9-1.5-92.5-89.4-31.6 3.4 204.6v.9l1.2 72.8c0 2.5.1 5 .3 7.5-.1.4-.1.9-.1 1.3 3.5 50 28 96.2 67.4 127.2l.6.5c32.5 25.8 72.9 39.7 114.4 39.5l6.5-.1 1.4.1c41.6-.1 81.6-15.7 112.3-43.8l.5-.5c4.2-4 8.2-8.3 12.1-12.8l.3-.4 9.6-51.1 35.3-40.5.4-1.1z"/></g></g></g></g></g></g></svg>