<svg width="233" height="229" fill="none" xmlns="http://www.w3.org/2000/svg"><path d="M116.281.368c-8.743 0-17.486.866-26.229 3.03v141.996c0 3.031-2.622 5.195-5.245 5.195H74.315c-2.186 0-3.934-1.731-3.934-3.896V9.459C28.85 26.776 0 67.47 0 114.224c0 63.206 52.02 114.29 116.719 114.29C181.417 228.514 233 177.43 233 114.657 233 51.885 180.542.368 116.281.368Zm-2.185 161.477c0 2.597-2.186 4.762-4.809 4.762H98.795c-2.622 0-4.808-2.165-4.808-4.762V89.548c0-2.597 2.186-4.762 4.809-4.762h10.491c2.623 0 4.809 2.165 4.809 4.762v72.297Zm23.606 6.927c0 2.597-2.186 4.762-4.809 4.762h-10.491c-2.623 0-4.809-2.165-4.809-4.762v-86.15c0-2.598 2.186-4.762 4.809-4.762h10.491c2.623 0 4.809 2.164 4.809 4.762v86.15Zm23.606-12.988c0 2.598-2.186 4.762-4.809 4.762h-10.491c-2.623 0-4.809-2.164-4.809-4.762V96.475c0-2.597 2.186-4.762 4.809-4.762h10.491c2.623 0 4.809 2.165 4.809 4.762v59.309Z" fill="#FF005C"/><path d="M116.281.368c-8.743 0-17.486.866-26.229 3.03v141.996c0 3.031-2.622 5.195-5.245 5.195H74.315c-2.186 0-3.934-1.731-3.934-3.896V9.459C28.85 26.776 0 67.47 0 114.224c0 63.206 52.02 114.29 116.719 114.29C181.417 228.514 233 177.43 233 114.657 233 51.885 180.542.368 116.281.368Zm-2.185 161.477c0 2.597-2.186 4.762-4.809 4.762H98.795c-2.622 0-4.808-2.165-4.808-4.762V89.548c0-2.597 2.186-4.762 4.809-4.762h10.491c2.623 0 4.809 2.165 4.809 4.762v72.297Zm23.606 6.927c0 2.597-2.186 4.762-4.809 4.762h-10.491c-2.623 0-4.809-2.165-4.809-4.762v-86.15c0-2.598 2.186-4.762 4.809-4.762h10.491c2.623 0 4.809 2.164 4.809 4.762v86.15Zm23.606-12.988c0 2.598-2.186 4.762-4.809 4.762h-10.491c-2.623 0-4.809-2.164-4.809-4.762V96.475c0-2.597 2.186-4.762 4.809-4.762h10.491c2.623 0 4.809 2.165 4.809 4.762v59.309Z" fill="url(#a)" fill-opacity=".4"/><defs><linearGradient id="a" x1="116.5" y1=".368" x2="116.5" y2="228.514" gradientUnits="userSpaceOnUse"><stop stop-color="#00E0FF"/><stop offset="1" stop-color="#00E0FF" stop-opacity="0"/></linearGradient></defs></svg>