<svg width="25" height="25" fill="none" xmlns="http://www.w3.org/2000/svg"><path d="M12.5 25C19.404 25 25 19.404 25 12.5S19.404 0 12.5 0 0 5.596 0 12.5 5.596 25 12.5 25Z" fill="#012F61"/><path d="M9.085 4.787V10.7c0 .2.19.363.39.363s.39-.163.39-.363V5.09c.36-.063.765-.095 1.16-.095a7.233 7.233 0 0 1 7.242 6.62c.018.2.19.348.388.328a.356.356 0 0 0 .325-.393 7.968 7.968 0 0 0-2.56-5.17 7.987 7.987 0 0 0-5.415-2.11c-.543 0-1.095.055-1.623.162a.37.37 0 0 0-.297.355Zm2.11 15.113v.025c.015.2.187.35.387.335a8.01 8.01 0 0 0 7.4-7.305.362.362 0 1 0-.722-.063c-.298 3.535-3.19 6.393-6.73 6.645a.367.367 0 0 0-.335.363Z" fill="#fff"/><path d="M10.645 6.205v5.873a.36.36 0 1 0 .72 0V6.58c2.94.188 5.347 2.67 5.347 5.695 0 1.36-.485 2.675-1.367 3.707a.361.361 0 1 0 .55.47 6.424 6.424 0 0 0 1.54-4.177 6.39 6.39 0 0 0-1.885-4.548 6.39 6.39 0 0 0-4.548-1.885.362.362 0 0 0-.357.363Z" fill="#99D7FD"/><path d="M11.195 16.712a.362.362 0 0 0 .405.36 4.838 4.838 0 0 0 3.36-7.58 4.834 4.834 0 0 0-2.253-1.745.37.37 0 0 0-.502.338V13.2a.36.36 0 1 0 .72 0V8.65a4.141 4.141 0 0 1 2.182 3.625 4.107 4.107 0 0 1-3.597 4.077.361.361 0 0 0-.315.36ZM9.45 11.945a.842.842 0 1 0 0-1.685.842.842 0 0 0 0 1.685Zm1.745 8.785a.842.842 0 1 0 0-1.685.842.842 0 0 0 0 1.685Z" fill="#fff"/></svg>