<svg xmlns="http://www.w3.org/2000/svg" width="100" height="100"><defs><linearGradient id="a" gradientUnits="userSpaceOnUse" x1="16" y1="0" x2="16" y2="32" gradientTransform="scale(3.125)"><stop offset="0" style="stop-color:#ff7b61;stop-opacity:1"/><stop offset="1" style="stop-color:#e05a41;stop-opacity:1"/></linearGradient></defs><path style="stroke:none;fill-rule:nonzero;fill:url(#a)" d="M50 100c27.617 0 50-22.383 50-50S77.617 0 50 0 0 22.383 0 50s22.383 50 50 50Zm0 0"/><path style="fill:none;stroke-width:.5;stroke-linecap:butt;stroke-linejoin:miter;stroke:#fff;stroke-opacity:1;stroke-miterlimit:4" d="M16 31.75c8.698 0 15.75-7.052 15.75-15.75C31.75 7.303 24.698.25 16 .25 7.303.25.25 7.303.25 16c0 8.698 7.053 15.75 15.75 15.75Zm0 0" transform="scale(3.125)"/><path style="stroke:none;fill-rule:evenodd;fill:#fff;fill-opacity:1" d="M59.836 24.07c3.969 2.47 7.96 5.668 11.176 9.317 6.789 5.93 12.11 13.77 11.07 21.906-.867 6.64-6.855 15.77-21.184 21.5a46.556 46.556 0 0 1-6.625 2.129h-.003c-.329.152-.66.297-.997.43-5.082 2.015-10.07 3.093-14.418 3.093-3.835 0-6.984-.86-9.093-2.468-4.614-3.524-6.828-12.547-6.63-26.829.2-13.656 2.02-22.125 5.677-26.203 1.265-4.25 3.086-7.023 5.5-8.46 4.992-2.989 15.48-.688 25.527 5.585ZM37.438 75.184c.332.367.664.668 1.019.949 3.105 2.36 8.738 2.75 15.258 1.219 8.45-3.606 13.683-8.395 16.5-12.97-3.3 3.048-7.738 5.927-13.531 8.247-5.075 2.02-10.067 3.094-14.41 3.094a20.98 20.98 0 0 1-4.837-.54Zm-1.598-2.297c4.48 2.062 12.11 1.437 20.203-1.805 7.918-3.18 13.152-7.387 16.3-11.555.18-.664.313-1.285.376-1.89 1.289-10.032-8.047-19.739-17.227-25.473-6.39-3.992-12.863-6.332-17.789-6.637-3.305 3.762-5.012 12.008-5.21 25.09-.157 10.438.972 17.89 3.347 22.27ZM74.559 55.96a15.71 15.71 0 0 0 1.601-5.047c.73-5.777-2.062-11.469-6.3-16.3a50.93 50.93 0 0 0-6.696-4.966c-6.676-4.16-13.73-6.656-18.894-6.656-1.997 0-3.618.371-4.813 1.078l-.043.02c5.012.668 11.086 2.984 17.008 6.683 9.05 5.645 18.25 15.094 18.14 25.188ZM35.555 25.55c-1.485.105-2.75.449-3.75 1.05a6.87 6.87 0 0 0-1.438 1.141c-1.289 4.469-1.976 10.672-2.086 18.688-.18 12.453 1.461 20.68 4.88 24.484-1.708-4.75-2.509-11.535-2.376-20.32.176-12.48 1.707-20.617 4.77-25.043Zm1.394-1.656a8.826 8.826 0 0 1 1.598-1.247c4.016-2.421 11.668-1.375 19.785 2.454-6.5-3.954-13.285-6.297-18.277-6.297-1.996 0-3.614.367-4.813 1.093-1.547.926-2.86 2.602-3.879 5.047 1.489-.75 3.395-1.093 5.59-1.047ZM33.203 73.23c-4.613-3.52-6.851-12.543-6.633-26.824.07-5.457.422-10.093 1.047-13.96-1.707 4.55-2.617 11.406-2.75 20.702-.203 13.747 1.797 22.313 5.965 25.516 3.082 2.344 8.691 2.75 15.191 1.223-3.617-.082-6.59-.922-8.605-2.469a11.133 11.133 0 0 1-2.797-3.285 12.79 12.79 0 0 1-1.418-.903Zm44.64-22.105c-.35 2.75-1.573 5.93-3.925 9.11-1.238 4.312-4.547 9.32-10.598 13.68 11.4-5.455 16.297-13.145 17.032-18.814.597-4.579-1.047-9.11-3.883-13.211 1.219 2.964 1.773 6.078 1.375 9.234Zm0 0"/></svg>