<svg width="64" height="64" fill="none" xmlns="http://www.w3.org/2000/svg"><g clip-path="url(#a)"><path d="M32.082 64c17.673 0 32-14.327 32-32 0-17.673-14.327-32-32-32-17.673 0-32 14.327-32 32 0 17.673 14.327 32 32 32z" fill="url(#b)"/><path d="M32.082 62c-16.542 0-30-13.458-30-30s13.458-30 30-30 30 13.458 30 30-13.458 30-30 30zm0-57.46C16.94 4.54 4.622 16.86 4.622 32s12.318 27.46 27.46 27.46c15.14 0 27.46-12.319 27.46-27.46S47.223 4.54 32.083 4.54z" fill="#28646E"/><path d="M30.098 26.52a.853.853 0 0 1-.565-1.493c2.41-2.123 3.476-3.876 3.665-4.206.709-1.234 1.847-1.872 3.042-1.71a.853.853 0 0 1-.23 1.69c-.697-.092-1.164.577-1.332.87-.213.371-1.406 2.334-4.015 4.636a.857.857 0 0 1-.565.212zM15.737 40.98a.854.854 0 0 1-.547-1.509 23.91 23.91 0 0 1 3.14-2.098.854.854 0 0 1 .762 1.527 22.902 22.902 0 0 0-2.81 1.882.845.845 0 0 1-.545.198z" fill="#28646E"/><path d="M37.187 32.886c.338.317.731.18 1.094-.163 2.472-2.356 5.09-6.055 5.964-7.975.186-.41.563-.639.968-.477.475.193.469 1.01.038 1.899-1.143 2.35-2.727 4.94-5.855 8.18a.653.653 0 0 0 .015.964c.276.248.723.232 1.142-.194 1.625-1.657 2.719-2.939 3.66-4.27.24-.349.53-.49.816-.426.411.082.476.477.35.952-.203.768-2.362 3.592-3.216 4.55-2.318 2.587-4.638 4.004-9.1 6.324-1.558.816-2.723 1.584-3.429 2.775-.641 1.084-.834 1.439-.9 1.576a1.084 1.084 0 0 0 .476 1.443 1.05 1.05 0 0 0 1.424-.547c0-.013-.033.018.806-1.4a6.09 6.09 0 0 1 2.629-2.319c4.463-2.034 6.292-3.644 8.881-6.233 1.182-1.183 2.815-3.715 3.265-4.464 1.248-2.1.593-3.9-.533-4.206a.143.143 0 0 1-.11-.149.143.143 0 0 1 .02-.063c.872-1.494 1.268-2.526 1.433-3.326.222-1.087-.086-2.406-1.578-2.728a.145.145 0 0 1-.109-.12.143.143 0 0 1 .004-.058c.093-.345.186-.779.25-1.065.313-1.412-.58-2.69-1.652-2.92a2.488 2.488 0 0 0-2.012.42.2.2 0 0 1-.26-.033 1.559 1.559 0 0 0-1.113-.52c-.935-.016-1.855.271-2.527 1.708-.482 1.027-1.199 2.407-3.298 4.735-1.948 2.16-4.66 4.266-6.333 5.365-.294.193-.705.147-.653-.247.078-.627.75-4.83.863-6.07.187-2.013-.896-2.939-2.11-3.102-1-.136-2.517.152-3.348 2.428-.49 1.334-1.502 3.525-2.362 7.055-.606 2.483-.705 5.378-.152 8.703a.84.84 0 0 1-.11.581c-.662 1.091-1.632 2.526-2.174 3.778a1.074 1.074 0 0 0 .446 1.368 1.05 1.05 0 0 0 1.454-.473c.327-.68.98-1.96 1.243-2.483.45-.923.75-1.532.872-1.915.11-.35.176-.755-.025-1.675-.34-1.55-.459-4.463.173-7.029a72.445 72.445 0 0 1 2.515-7.837c.254-.628.615-.824.98-.792.363.033 1.049.208.851 1.488-.352 2.3-.852 5.224-1.017 6.204-.08.481-.173 1.608.717 2.122.694.402 1.458.178 2.302-.385 1.9-1.267 5.174-3.848 7.231-6.158 2.158-2.425 2.846-3.868 3.4-5.174.254-.596.904-.591 1.134-.524.23.067.508.377.312 1.033-.479 1.594-2.45 5.244-6.247 8.668-.43.389-.369.847-.15 1.087s.606.384 1.048 0c3.412-2.91 5.36-6.387 6.235-8.246.292-.62.542-1.258.748-1.91.186-.54.602-.733.893-.673.415.088.69.514.557 1.215a12.334 12.334 0 0 1-.93 2.592c-1.093 2.322-3.403 5.43-5.894 8.096a.701.701 0 0 0-.011 1.04zM21.76 21.324c.132-.116.08-.264.042-.384-.182-.586-1.229-3.038-1.503-3.531-.139-.248-.314-.282-.501-.21-.247.094-.552.326-1.02.73-.466.406-.73.683-.856.915-.097.178-.085.356.143.524.453.337 2.748 1.693 3.306 1.96.113.052.254.122.386 0l.003-.004zm18.92 21.708c-.174.011-.223.163-.265.277-.21.578-.87 3.163-.95 3.721-.041.28.076.413.269.47.253.075.633.08 1.254.038.62-.042.994-.096 1.236-.206.184-.081.282-.23.204-.503-.155-.54-1.154-3.014-1.44-3.559-.057-.11-.128-.251-.302-.238h-.005zm1.493-1.198c-.08.155.021.275.1.372.383.48 2.25 2.385 2.684 2.744.218.181.393.15.542.015.196-.178.398-.5.684-1.052.285-.551.434-.9.467-1.162.026-.2-.05-.36-.327-.436-.543-.148-3.175-.581-3.79-.619-.123-.008-.28-.023-.362.134l.002.004zm-21.318-18.91c-.03-.173-.186-.206-.305-.235-.597-.147-3.239-.52-3.802-.54-.283-.01-.404.122-.44.326-.047.26-.01.638.1 1.25.11.61.204.979.338 1.207.103.173.261.255.523.149.522-.214 2.871-1.47 3.38-1.819.104-.07.238-.153.206-.326v-.012zm11.227 34.222a.952.952 0 1 0 0-1.903.952.952 0 0 0 0 1.903zm0-48.388a.952.952 0 1 0 0-1.904.952.952 0 0 0 0 1.904zm6.262 47.564a.952.952 0 1 0 0-1.904.952.952 0 0 0 0 1.904zM25.82 9.582a.952.952 0 1 0 0-1.904.952.952 0 0 0 0 1.904zm18.36 44.323a.952.952 0 1 0 0-1.903.952.952 0 0 0 0 1.903zM19.985 11.998a.952.952 0 1 0 0-1.903.952.952 0 0 0 0 1.903zM49.19 50.06a.952.952 0 1 0 0-1.903.952.952 0 0 0 0 1.903zM14.973 15.843a.952.952 0 1 0 0-1.903.952.952 0 0 0 0 1.903zm40.479 23.37a.952.952 0 1 0 0-1.904.952.952 0 0 0 0 1.904zm-2.417 5.837a.952.952 0 1 0 0-1.904.952.952 0 0 0 0 1.904zM11.128 20.854a.952.952 0 1 0 0-1.904.952.952 0 0 0 0 1.904zM8.712 26.69a.952.952 0 1 0 0-1.903.952.952 0 0 0 0 1.904zm47.564 6.262a.952.952 0 1 0 0-1.904.952.952 0 0 0 0 1.904zm-48.389 0a.952.952 0 1 0 0-1.904.952.952 0 0 0 0 1.904zm47.565-6.262a.952.952 0 1 0 0-1.903.952.952 0 0 0 0 1.904zM8.712 39.213a.952.952 0 1 0 0-1.904.952.952 0 0 0 0 1.904zm44.323-18.359a.952.952 0 1 0 0-1.904.952.952 0 0 0 0 1.904zM11.128 45.05a.952.952 0 1 0 0-1.904.952.952 0 0 0 0 1.904zM49.19 15.843a.952.952 0 1 0 0-1.903.952.952 0 0 0 0 1.903zM14.973 50.06a.952.952 0 1 0 0-1.903.952.952 0 0 0 0 1.903zM44.18 11.998a.952.952 0 1 0 0-1.903.952.952 0 0 0 0 1.903zM19.985 53.905a.952.952 0 1 0 0-1.903.952.952 0 0 0 0 1.903zM38.344 9.582a.952.952 0 1 0 0-1.904.952.952 0 0 0 0 1.904zM25.82 56.322a.952.952 0 1 0 0-1.904.952.952 0 0 0 0 1.904z" fill="#28646E"/></g><defs><linearGradient id="b" x1=".082" y1="32" x2="64.082" y2="32" gradientUnits="userSpaceOnUse"><stop stop-color="#D2F0F0"/><stop offset="1" stop-color="#F0E6B4"/></linearGradient><clipPath id="a"><path fill="#fff" d="M0 0h152.163v64H0z"/></clipPath></defs></svg>