<svg width="335" height="335" fill="none" xmlns="http://www.w3.org/2000/svg"><rect width="335" height="335" rx="167.5" fill="#000"/><path d="M167.331 115.245h-.26c-9.973 0-18.058-8.085-18.058-18.058v-.26c0-9.972 8.085-18.057 18.058-18.057h.26c9.973 0 18.058 8.085 18.058 18.057v.26c0 9.973-8.085 18.058-18.058 18.058Zm0 71.574h-.26c-9.973 0-18.058-8.085-18.058-18.058v-.26c0-9.973 8.085-18.058 18.058-18.058h.26c9.973 0 18.058 8.085 18.058 18.058v.26c0 9.973-8.085 18.058-18.058 18.058Zm-53.516-18.318v.26c0 9.973-8.086 18.058-18.058 18.058h-.26c-9.973 0-18.058-8.085-18.058-18.058v-.26c0-9.973 8.085-18.058 18.058-18.058h.26c9.972 0 18.058 8.085 18.058 18.058Zm53.254 50.314h.26c9.971 0 18.055 8.084 18.055 18.055v.26c0 9.971-8.084 18.055-18.055 18.055h-.26c-9.972 0-18.056-8.084-18.056-18.055v-.26c0-9.971 8.084-18.055 18.056-18.055Zm55.235-50.054v-.26c0-9.973 8.085-18.058 18.058-18.058h.26c9.973 0 18.058 8.085 18.058 18.058v.26c0 9.973-8.085 18.058-18.058 18.058h-.26c-9.973 0-18.058-8.085-18.058-18.058Zm-103.533 58.807c6.346 0 11.49-5.145 11.49-11.491s-5.144-11.49-11.49-11.49-11.491 5.144-11.491 11.49 5.145 11.491 11.491 11.491Zm0-102.712c6.346 0 11.49-5.145 11.49-11.491s-5.144-11.49-11.49-11.49-11.491 5.144-11.491 11.49 5.145 11.491 11.491 11.491Zm95.415 0c6.346 0 11.49-5.145 11.49-11.491s-5.144-11.49-11.49-11.49-11.491 5.144-11.491 11.49 5.145 11.491 11.491 11.491Zm.024 102.715c6.346 0 11.491-5.144 11.491-11.49s-5.145-11.491-11.491-11.491c-6.345 0-11.49 5.145-11.49 11.491s5.145 11.49 11.49 11.49Z" fill="#fff"/><g opacity=".8" filter="url(#a)" fill="#fff"><path d="M167.331 115.245h-.26c-9.973 0-18.058-8.085-18.058-18.058v-.26c0-9.972 8.085-18.057 18.058-18.057h.26c9.973 0 18.058 8.085 18.058 18.057v.26c0 9.973-8.085 18.058-18.058 18.058Zm0 71.574h-.26c-9.973 0-18.058-8.085-18.058-18.058v-.26c0-9.973 8.085-18.058 18.058-18.058h.26c9.973 0 18.058 8.085 18.058 18.058v.26c0 9.973-8.085 18.058-18.058 18.058Zm-53.516-18.318v.26c0 9.973-8.086 18.058-18.058 18.058h-.26c-9.973 0-18.058-8.085-18.058-18.058v-.26c0-9.973 8.085-18.058 18.058-18.058h.26c9.972 0 18.058 8.085 18.058 18.058Zm53.254 50.314h.26c9.971 0 18.055 8.084 18.055 18.055v.26c0 9.971-8.084 18.055-18.055 18.055h-.26c-9.972 0-18.056-8.084-18.056-18.055v-.26c0-9.971 8.084-18.055 18.056-18.055Zm55.235-50.054v-.26c0-9.973 8.085-18.058 18.058-18.058h.26c9.973 0 18.058 8.085 18.058 18.058v.26c0 9.973-8.085 18.058-18.058 18.058h-.26c-9.973 0-18.058-8.085-18.058-18.058Zm-103.533 58.807c6.346 0 11.49-5.145 11.49-11.491s-5.144-11.49-11.49-11.49-11.491 5.144-11.491 11.49 5.145 11.491 11.491 11.491Zm0-102.712c6.346 0 11.49-5.145 11.49-11.491s-5.144-11.49-11.49-11.49-11.491 5.144-11.491 11.49 5.145 11.491 11.491 11.491Zm95.415 0c6.346 0 11.49-5.145 11.49-11.491s-5.144-11.49-11.49-11.49-11.491 5.144-11.491 11.49 5.145 11.491 11.491 11.491Zm.024 102.715c6.346 0 11.491-5.144 11.491-11.49s-5.145-11.491-11.491-11.491c-6.345 0-11.49 5.145-11.49 11.491s5.145 11.49 11.49 11.49Z"/></g><g opacity=".5" filter="url(#b)" fill="#fff"><path d="M167.331 115.245h-.26c-9.973 0-18.058-8.085-18.058-18.058v-.26c0-9.972 8.085-18.057 18.058-18.057h.26c9.973 0 18.058 8.085 18.058 18.057v.26c0 9.973-8.085 18.058-18.058 18.058Zm0 71.574h-.26c-9.973 0-18.058-8.085-18.058-18.058v-.26c0-9.973 8.085-18.058 18.058-18.058h.26c9.973 0 18.058 8.085 18.058 18.058v.26c0 9.973-8.085 18.058-18.058 18.058Zm-53.516-18.318v.26c0 9.973-8.086 18.058-18.058 18.058h-.26c-9.973 0-18.058-8.085-18.058-18.058v-.26c0-9.973 8.085-18.058 18.058-18.058h.26c9.972 0 18.058 8.085 18.058 18.058Zm53.254 50.314h.26c9.971 0 18.055 8.084 18.055 18.055v.26c0 9.971-8.084 18.055-18.055 18.055h-.26c-9.972 0-18.056-8.084-18.056-18.055v-.26c0-9.971 8.084-18.055 18.056-18.055Zm55.235-50.054v-.26c0-9.973 8.085-18.058 18.058-18.058h.26c9.973 0 18.058 8.085 18.058 18.058v.26c0 9.973-8.085 18.058-18.058 18.058h-.26c-9.973 0-18.058-8.085-18.058-18.058Zm-103.533 58.807c6.346 0 11.49-5.145 11.49-11.491s-5.144-11.49-11.49-11.49-11.491 5.144-11.491 11.49 5.145 11.491 11.491 11.491Zm0-102.712c6.346 0 11.49-5.145 11.49-11.491s-5.144-11.49-11.49-11.49-11.491 5.144-11.491 11.49 5.145 11.491 11.491 11.491Zm95.415 0c6.346 0 11.49-5.145 11.49-11.491s-5.144-11.49-11.49-11.49-11.491 5.144-11.491 11.49 5.145 11.491 11.491 11.491Zm.024 102.715c6.346 0 11.491-5.144 11.491-11.49s-5.145-11.491-11.491-11.491c-6.345 0-11.49 5.145-11.49 11.491s5.145 11.49 11.49 11.49Z"/></g><g opacity=".1" filter="url(#c)" fill="#fff"><path d="M166.212 116.06h-.26c-9.973 0-18.058-8.085-18.058-18.058v-.26c0-9.972 8.085-18.057 18.058-18.057h.26c9.973 0 18.058 8.085 18.058 18.057v.26c0 9.973-8.085 18.058-18.058 18.058Zm0 71.573h-.26c-9.973 0-18.058-8.085-18.058-18.057v-.261c0-9.972 8.085-18.057 18.058-18.057h.26c9.973 0 18.058 8.085 18.058 18.057v.261c0 9.972-8.085 18.057-18.058 18.057Zm-53.516-18.318v.261c0 9.972-8.085 18.057-18.058 18.057h-.26c-9.973 0-18.058-8.085-18.058-18.057v-.261c0-9.972 8.085-18.057 18.058-18.057h.26c9.973 0 18.058 8.085 18.058 18.057Zm53.254 50.314h.26c9.971 0 18.055 8.084 18.055 18.056v.26c0 9.971-8.084 18.055-18.055 18.055h-.26c-9.972 0-18.056-8.084-18.056-18.055v-.26c0-9.972 8.084-18.056 18.056-18.056Zm55.235-50.053v-.261c0-9.972 8.085-18.057 18.058-18.057h.26c9.973 0 18.058 8.085 18.058 18.057v.261c0 9.972-8.085 18.057-18.058 18.057h-.26c-9.973 0-18.058-8.085-18.058-18.057Zm-103.533 58.807c6.346 0 11.49-5.145 11.49-11.491s-5.144-11.49-11.49-11.49-11.49 5.144-11.49 11.49 5.144 11.491 11.49 11.491Zm0-102.712c6.346 0 11.49-5.145 11.49-11.491s-5.144-11.49-11.49-11.49-11.49 5.144-11.49 11.49 5.144 11.491 11.49 11.491Zm95.415 0c6.346 0 11.49-5.145 11.49-11.491s-5.144-11.49-11.49-11.49-11.491 5.144-11.491 11.49 5.145 11.491 11.491 11.491Zm.024 102.715c6.346 0 11.491-5.144 11.491-11.49s-5.145-11.491-11.491-11.491-11.49 5.145-11.49 11.491 5.144 11.49 11.49 11.49Z"/></g><g opacity=".3" filter="url(#d)" fill="#fff"><path d="M167.331 115.245h-.26c-9.973 0-18.058-8.085-18.058-18.058v-.26c0-9.972 8.085-18.057 18.058-18.057h.26c9.973 0 18.058 8.085 18.058 18.057v.26c0 9.973-8.085 18.058-18.058 18.058Zm0 71.574h-.26c-9.973 0-18.058-8.085-18.058-18.058v-.26c0-9.973 8.085-18.058 18.058-18.058h.26c9.973 0 18.058 8.085 18.058 18.058v.26c0 9.973-8.085 18.058-18.058 18.058Zm-53.516-18.318v.26c0 9.973-8.085 18.058-18.058 18.058h-.26c-9.973 0-18.058-8.085-18.058-18.058v-.26c0-9.973 8.085-18.058 18.058-18.058h.26c9.973 0 18.058 8.085 18.058 18.058Zm53.254 50.314h.26c9.971 0 18.055 8.084 18.055 18.055v.26c0 9.971-8.084 18.055-18.055 18.055h-.26c-9.972 0-18.056-8.084-18.056-18.055v-.26c0-9.971 8.084-18.055 18.056-18.055Zm55.235-50.054v-.26c0-9.973 8.085-18.058 18.058-18.058h.26c9.973 0 18.058 8.085 18.058 18.058v.26c0 9.973-8.085 18.058-18.058 18.058h-.26c-9.973 0-18.058-8.085-18.058-18.058Zm-103.533 58.807c6.346 0 11.49-5.145 11.49-11.491s-5.144-11.49-11.49-11.49-11.491 5.144-11.491 11.49 5.145 11.491 11.491 11.491Zm0-102.712c6.346 0 11.49-5.145 11.49-11.491s-5.144-11.49-11.49-11.49-11.491 5.144-11.491 11.49 5.145 11.491 11.491 11.491Zm95.415 0c6.346 0 11.49-5.145 11.49-11.491s-5.144-11.49-11.49-11.49-11.491 5.144-11.491 11.49 5.145 11.491 11.491 11.491Zm.025 102.715c6.345 0 11.49-5.144 11.49-11.49s-5.145-11.491-11.49-11.491c-6.346 0-11.491 5.145-11.491 11.491s5.145 11.49 11.491 11.49Z"/><g opacity=".8" filter="url(#e)"><path d="M167.331 115.245h-.26c-9.973 0-18.058-8.085-18.058-18.058v-.26c0-9.972 8.085-18.057 18.058-18.057h.26c9.973 0 18.058 8.085 18.058 18.057v.26c0 9.973-8.085 18.058-18.058 18.058Zm0 71.574h-.26c-9.973 0-18.058-8.085-18.058-18.058v-.26c0-9.973 8.085-18.058 18.058-18.058h.26c9.973 0 18.058 8.085 18.058 18.058v.26c0 9.973-8.085 18.058-18.058 18.058Zm-53.516-18.318v.26c0 9.973-8.085 18.058-18.058 18.058h-.26c-9.973 0-18.058-8.085-18.058-18.058v-.26c0-9.973 8.085-18.058 18.058-18.058h.26c9.973 0 18.058 8.085 18.058 18.058Zm53.254 50.314h.26c9.971 0 18.055 8.084 18.055 18.055v.26c0 9.971-8.084 18.055-18.055 18.055h-.26c-9.972 0-18.056-8.084-18.056-18.055v-.26c0-9.971 8.084-18.055 18.056-18.055Zm55.235-50.054v-.26c0-9.973 8.085-18.058 18.058-18.058h.26c9.973 0 18.058 8.085 18.058 18.058v.26c0 9.973-8.085 18.058-18.058 18.058h-.26c-9.973 0-18.058-8.085-18.058-18.058Zm-103.533 58.807c6.346 0 11.49-5.145 11.49-11.491s-5.144-11.49-11.49-11.49-11.491 5.144-11.491 11.49 5.145 11.491 11.491 11.491Zm0-102.712c6.346 0 11.49-5.145 11.49-11.491s-5.144-11.49-11.49-11.49-11.491 5.144-11.491 11.49 5.145 11.491 11.491 11.491Zm95.415 0c6.346 0 11.49-5.145 11.49-11.491s-5.144-11.49-11.49-11.49-11.491 5.144-11.491 11.49 5.145 11.491 11.491 11.491Zm.025 102.715c6.345 0 11.49-5.144 11.49-11.49s-5.145-11.491-11.49-11.491c-6.346 0-11.491 5.145-11.491 11.491s5.145 11.49 11.491 11.49Z"/></g><g opacity=".5" filter="url(#f)"><path d="M167.331 115.245h-.26c-9.973 0-18.058-8.085-18.058-18.058v-.26c0-9.972 8.085-18.057 18.058-18.057h.26c9.973 0 18.058 8.085 18.058 18.057v.26c0 9.973-8.085 18.058-18.058 18.058Zm0 71.574h-.26c-9.973 0-18.058-8.085-18.058-18.058v-.26c0-9.973 8.085-18.058 18.058-18.058h.26c9.973 0 18.058 8.085 18.058 18.058v.26c0 9.973-8.085 18.058-18.058 18.058Zm-53.516-18.318v.26c0 9.973-8.085 18.058-18.058 18.058h-.26c-9.973 0-18.058-8.085-18.058-18.058v-.26c0-9.973 8.085-18.058 18.058-18.058h.26c9.973 0 18.058 8.085 18.058 18.058Zm53.254 50.314h.26c9.971 0 18.055 8.084 18.055 18.055v.26c0 9.971-8.084 18.055-18.055 18.055h-.26c-9.972 0-18.056-8.084-18.056-18.055v-.26c0-9.971 8.084-18.055 18.056-18.055Zm55.235-50.054v-.26c0-9.973 8.085-18.058 18.058-18.058h.26c9.973 0 18.058 8.085 18.058 18.058v.26c0 9.973-8.085 18.058-18.058 18.058h-.26c-9.973 0-18.058-8.085-18.058-18.058Zm-103.533 58.807c6.346 0 11.49-5.145 11.49-11.491s-5.144-11.49-11.49-11.49-11.491 5.144-11.491 11.49 5.145 11.491 11.491 11.491Zm0-102.712c6.346 0 11.49-5.145 11.49-11.491s-5.144-11.49-11.49-11.49-11.491 5.144-11.491 11.49 5.145 11.491 11.491 11.491Zm95.415 0c6.346 0 11.49-5.145 11.49-11.491s-5.144-11.49-11.49-11.49-11.491 5.144-11.491 11.49 5.145 11.491 11.491 11.491Zm.025 102.715c6.345 0 11.49-5.144 11.49-11.49s-5.145-11.491-11.49-11.491c-6.346 0-11.491 5.145-11.491 11.491s5.145 11.49 11.491 11.49Z"/></g><g opacity=".1" filter="url(#g)"><path d="M166.212 116.06h-.26c-9.972 0-18.058-8.085-18.058-18.058v-.26c0-9.972 8.086-18.057 18.058-18.057h.26c9.973 0 18.058 8.085 18.058 18.057v.26c0 9.973-8.085 18.058-18.058 18.058Zm0 71.573h-.26c-9.972 0-18.058-8.085-18.058-18.057v-.261c0-9.972 8.086-18.057 18.058-18.057h.26c9.973 0 18.058 8.085 18.058 18.057v.261c0 9.972-8.085 18.057-18.058 18.057Zm-53.516-18.318v.261c0 9.972-8.085 18.057-18.058 18.057h-.26c-9.973 0-18.058-8.085-18.058-18.057v-.261c0-9.972 8.085-18.057 18.058-18.057h.26c9.973 0 18.058 8.085 18.058 18.057Zm53.254 50.314h.26c9.971 0 18.055 8.084 18.055 18.056v.26c0 9.971-8.084 18.055-18.055 18.055h-.26c-9.972 0-18.056-8.084-18.056-18.055v-.26c0-9.972 8.084-18.056 18.056-18.056Zm55.235-50.053v-.261c0-9.972 8.086-18.057 18.058-18.057h.26c9.973 0 18.058 8.085 18.058 18.057v.261c0 9.972-8.085 18.057-18.058 18.057h-.26c-9.972 0-18.058-8.085-18.058-18.057Zm-103.533 58.807c6.346 0 11.49-5.145 11.49-11.491s-5.144-11.49-11.49-11.49-11.49 5.144-11.49 11.49 5.144 11.491 11.49 11.491Zm0-102.712c6.346 0 11.49-5.145 11.49-11.491s-5.144-11.49-11.49-11.49-11.49 5.144-11.49 11.49 5.144 11.491 11.49 11.491Zm95.415 0c6.346 0 11.49-5.145 11.49-11.491s-5.144-11.49-11.49-11.49-11.491 5.144-11.491 11.49 5.145 11.491 11.491 11.491Zm.025 102.715c6.345 0 11.49-5.144 11.49-11.49s-5.145-11.491-11.49-11.491c-6.346 0-11.491 5.145-11.491 11.491s5.145 11.49 11.491 11.49Z"/></g></g><defs><filter id="a" x="66.251" y="67.682" width="203.616" height="198.691" filterUnits="userSpaceOnUse" color-interpolation-filters="sRGB"><feFlood flood-opacity="0" result="BackgroundImageFix"/><feBlend in="SourceGraphic" in2="BackgroundImageFix" result="shape"/><feGaussianBlur stdDeviation="5.594" result="effect1_foregroundBlur_795_396"/></filter><filter id="b" x="75.202" y="76.632" width="185.716" height="180.791" filterUnits="userSpaceOnUse" color-interpolation-filters="sRGB"><feFlood flood-opacity="0" result="BackgroundImageFix"/><feBlend in="SourceGraphic" in2="BackgroundImageFix" result="shape"/><feGaussianBlur stdDeviation="1.119" result="effect1_foregroundBlur_795_396"/></filter><filter id="c" x="51.707" y="55.072" width="230.466" height="225.541" filterUnits="userSpaceOnUse" color-interpolation-filters="sRGB"><feFlood flood-opacity="0" result="BackgroundImageFix"/><feBlend in="SourceGraphic" in2="BackgroundImageFix" result="shape"/><feGaussianBlur stdDeviation="12.306" result="effect1_foregroundBlur_795_396"/></filter><filter id="d" x="42.32" y="44.87" width="250.359" height="245.13" filterUnits="userSpaceOnUse" color-interpolation-filters="sRGB"><feFlood flood-opacity="0" result="BackgroundImageFix"/><feBlend in="SourceGraphic" in2="BackgroundImageFix" result="shape"/><feGaussianBlur stdDeviation="17" result="effect1_foregroundBlur_795_396"/></filter><filter id="e" x="66.251" y="67.682" width="203.616" height="198.691" filterUnits="userSpaceOnUse" color-interpolation-filters="sRGB"><feFlood flood-opacity="0" result="BackgroundImageFix"/><feBlend in="SourceGraphic" in2="BackgroundImageFix" result="shape"/><feGaussianBlur stdDeviation="5.594" result="effect1_foregroundBlur_795_396"/></filter><filter id="f" x="75.202" y="76.632" width="185.716" height="180.791" filterUnits="userSpaceOnUse" color-interpolation-filters="sRGB"><feFlood flood-opacity="0" result="BackgroundImageFix"/><feBlend in="SourceGraphic" in2="BackgroundImageFix" result="shape"/><feGaussianBlur stdDeviation="1.119" result="effect1_foregroundBlur_795_396"/></filter><filter id="g" x="51.707" y="55.072" width="230.466" height="225.541" filterUnits="userSpaceOnUse" color-interpolation-filters="sRGB"><feFlood flood-opacity="0" result="BackgroundImageFix"/><feBlend in="SourceGraphic" in2="BackgroundImageFix" result="shape"/><feGaussianBlur stdDeviation="12.306" result="effect1_foregroundBlur_795_396"/></filter></defs></svg>